<svg xmlns="http://www.w3.org/2000/svg" version="1.1" xmlns:xlink="http://www.w3.org/1999/xlink" xmlns:svgjs="http://svgjs.dev/svgjs" width="2000" height="1500" viewBox="0 0 2000 1500"><rect width="2000" height="1500" fill="#ffbe79"></rect><g transform="matrix(0.75,0,0,0.75,249.090909090909,282.7536437246963)"><svg viewBox="0 0 396 247" data-background-color="#ffbe79" preserveAspectRatio="xMidYMid meet" height="1247" width="2000" xmlns="http://www.w3.org/2000/svg" xmlns:xlink="http://www.w3.org/1999/xlink"><g id="tight-bounds" transform="matrix(1,0,0,1,0.2400000000000091,-0.09999999999999432)"><svg viewBox="0 0 395.52 247.2" height="247.2" width="395.52"><g><svg></svg></g><g><svg viewBox="0 0 395.52 247.2" height="247.2" width="395.52"><g transform="matrix(1,0,0,1,39.55199999999999,53.2366579580836)"><svg viewBox="0 0 316.416 140.7266840838328" height="140.7266840838328" width="316.416"><g><svg viewBox="0 0 533.2372661441893 237.15840000000003" height="140.7266840838328" width="316.416"><g><rect width="6.5749908258816" height="158.896128" x="193.03425744950772" y="39.13113600000001" fill="#374151" opacity="1" stroke-width="0" stroke="transparent" fill-opacity="1" class="rect-o-0" data-fill-palette-color="primary" rx="1%" id="o-0" data-palette-color="#374151"></rect></g><g transform="matrix(1,0,0,1,216.8212661441893,39.52640000000001)"><svg viewBox="0 0 316.416 158.1056" height="158.1056" width="316.416"><g><svg viewBox="0 0 316.416 158.1056" height="158.1056" width="316.416"><g><svg viewBox="0 0 316.416 158.1056" height="158.1056" width="316.416"><g transform="matrix(1,0,0,1,0,0)"><svg width="316.416" viewBox="2.750001907348633 -35 155.5500030517578 74.19999694824219" height="158.1056" data-palette-color="#374151"><svg></svg><svg></svg><g class="undefined-text-0" data-fill-palette-color="primary" id="text-0"><path xmlns="http://www.w3.org/2000/svg" d="M3.8-34.45h15.8l-0.5 3.65h-10.75v11.45h9.35v3.65h-9.35v12.05h11.45v3.65h-16zM43.2-34.45l-7.6 15.85 8.5 18.6h-4.8l-6.45-15.55-6.4 15.55h-4.6l8.35-18.35-7.65-16.1h4.8l5.6 13.25 5.7-13.25zM54.7-34.45c4.033 0 7.093 0.9 9.18 2.7 2.08 1.8 3.12 4.45 3.12 7.95v0c0 3.733-1.057 6.507-3.17 8.32-2.12 1.82-5.13 2.73-9.03 2.73v0h-2.25v12.75h-4.55v-34.45zM54.8-16.35c2.567 0 4.45-0.543 5.65-1.63 1.2-1.08 1.8-3.003 1.8-5.77v0c0-2.5-0.607-4.31-1.82-5.43-1.22-1.113-3.097-1.67-5.63-1.67v0h-2.25v14.5zM92.2 0h-5l-6.7-14.75c-0.233 0.033-0.583 0.05-1.05 0.05v0h-3.1v14.7h-4.55v-34.45h6.9c4.033 0 7.033 0.833 9 2.5 1.967 1.667 2.95 4.067 2.95 7.2v0c0 2.2-0.517 4.093-1.55 5.68-1.033 1.58-2.517 2.737-4.45 3.47v0zM79.05-18.2c2.4 0 4.133-0.527 5.2-1.58 1.067-1.047 1.6-2.703 1.6-4.97v0c0-2.1-0.55-3.643-1.65-4.63-1.1-0.98-2.95-1.47-5.55-1.47v0h-2.3v12.65zM96.9-34.45h15.8l-0.5 3.65h-10.75v11.45h9.35v3.65h-9.35v12.05h11.45v3.65h-16zM126.15-35c1.833 0 3.46 0.327 4.88 0.98 1.413 0.647 2.72 1.637 3.92 2.97v0l-2.4 2.6c-1.033-1-2.05-1.727-3.05-2.18-1-0.447-2.1-0.67-3.3-0.67v0c-1.433 0-2.593 0.457-3.48 1.37-0.88 0.92-1.32 2.13-1.32 3.63v0c0 1.467 0.423 2.667 1.27 3.6 0.853 0.933 2.463 1.85 4.83 2.75v0c2.733 1.033 4.8 2.317 6.2 3.85 1.4 1.533 2.1 3.717 2.1 6.55v0c0 1.833-0.423 3.523-1.27 5.07-0.853 1.553-2.063 2.787-3.63 3.7-1.567 0.92-3.383 1.38-5.45 1.38v0c-2.067 0-3.9-0.383-5.5-1.15-1.6-0.767-3.05-1.867-4.35-3.3v0l2.45-2.6c1.167 1.067 2.323 1.883 3.47 2.45 1.153 0.567 2.43 0.85 3.83 0.85v0c1.733 0 3.117-0.567 4.15-1.7 1.033-1.133 1.55-2.667 1.55-4.6v0c0-1.667-0.417-3-1.25-4-0.833-1-2.383-1.917-4.65-2.75v0c-2.9-1.1-5.027-2.433-6.38-4-1.347-1.567-2.02-3.533-2.02-5.9v0c0-1.633 0.4-3.133 1.2-4.5 0.8-1.367 1.917-2.443 3.35-3.23 1.433-0.78 3.05-1.17 4.85-1.17zM148.65-35c1.833 0 3.46 0.327 4.88 0.98 1.413 0.647 2.72 1.637 3.92 2.97v0l-2.4 2.6c-1.033-1-2.05-1.727-3.05-2.18-1-0.447-2.1-0.67-3.3-0.67v0c-1.433 0-2.593 0.457-3.48 1.37-0.88 0.92-1.32 2.13-1.32 3.63v0c0 1.467 0.423 2.667 1.27 3.6 0.853 0.933 2.463 1.85 4.83 2.75v0c2.733 1.033 4.8 2.317 6.2 3.85 1.4 1.533 2.1 3.717 2.1 6.55v0c0 1.833-0.423 3.523-1.27 5.07-0.853 1.553-2.063 2.787-3.63 3.7-1.567 0.92-3.383 1.38-5.45 1.38v0c-2.067 0-3.9-0.383-5.5-1.15-1.6-0.767-3.05-1.867-4.35-3.3v0l2.45-2.6c1.167 1.067 2.327 1.883 3.48 2.45 1.147 0.567 2.42 0.85 3.82 0.85v0c1.733 0 3.117-0.567 4.15-1.7 1.033-1.133 1.55-2.667 1.55-4.6v0c0-1.667-0.417-3-1.25-4-0.833-1-2.383-1.917-4.65-2.75v0c-2.9-1.1-5.023-2.433-6.37-4-1.353-1.567-2.03-3.533-2.03-5.9v0c0-1.633 0.4-3.133 1.2-4.5 0.8-1.367 1.917-2.443 3.35-3.23 1.433-0.78 3.05-1.17 4.85-1.17z" fill="#374151" fill-rule="nonzero" stroke="none" stroke-width="1" stroke-linecap="butt" stroke-linejoin="miter" stroke-miterlimit="10" stroke-dasharray="" stroke-dashoffset="0" font-family="none" font-weight="none" font-size="none" text-anchor="none" style="mix-blend-mode: normal" data-fill-palette-color="primary" opacity="1"></path><path xmlns="http://www.w3.org/2000/svg" d="M27.95 4.15l2.3 34.45h-4.3l-0.9-15.65c-0.433-6.467-0.617-11.183-0.55-14.15v0l-5.85 25.9h-4.25l-6.15-25.95 0.05 2.3c0 2.6-0.133 6.667-0.4 12.2v0l-0.85 15.35h-4.3l2.35-34.45h5.9l5.6 25.25 5.3-25.25zM47.4 3.6c3.8 0 6.767 1.473 8.9 4.42 2.133 2.953 3.2 7.413 3.2 13.38v0c0 5.9-1.067 10.34-3.2 13.32-2.133 2.987-5.1 4.48-8.9 4.48v0c-3.8 0-6.773-1.467-8.92-4.4-2.153-2.933-3.23-7.383-3.23-13.35v0c0-5.9 1.083-10.35 3.25-13.35 2.167-3 5.133-4.5 8.9-4.5zM47.4 7.3c-2.4 0-4.227 1.1-5.48 3.3-1.247 2.2-1.87 5.817-1.87 10.85v0c0 5 0.633 8.583 1.9 10.75 1.267 2.167 3.083 3.25 5.45 3.25v0c2.4 0 4.217-1.077 5.45-3.23 1.233-2.147 1.85-5.753 1.85-10.82v0c0-5.033-0.617-8.643-1.85-10.83-1.233-2.18-3.05-3.27-5.45-3.27zM80.5 4.15h4.45l-8.7 34.45h-5.25l-8.85-34.45h4.6l6.95 29.55zM89.15 4.15h4.55v34.45h-4.55zM121.55 4.15v34.45h-6.05l-10.6-29.35c0.2 2.333 0.36 4.417 0.48 6.25 0.113 1.833 0.17 4.133 0.17 6.9v0 16.2h-4.25v-34.45h6.05l10.6 29.4c-0.133-0.5-0.273-1.867-0.42-4.1-0.153-2.233-0.23-4.317-0.23-6.25v0-19.05zM140.2 3.6c1.767 0 3.327 0.307 4.68 0.92 1.347 0.62 2.687 1.563 4.02 2.83v0l-2.5 2.55c-1.067-0.933-2.06-1.6-2.98-2-0.913-0.4-1.987-0.6-3.22-0.6v0c-2.3 0-4.177 1.067-5.63 3.2-1.447 2.133-2.17 5.75-2.17 10.85v0c0 3.567 0.273 6.373 0.82 8.42 0.553 2.053 1.37 3.513 2.45 4.38 1.087 0.867 2.463 1.3 4.13 1.3v0c1.8 0 3.45-0.5 4.95-1.5v0-10.7h-4.7l-0.5-3.7h9.6v16.6c-2.933 2.033-6.067 3.05-9.4 3.05v0c-8.1 0-12.15-5.95-12.15-17.85v0c0-3.9 0.567-7.183 1.7-9.85 1.133-2.667 2.65-4.65 4.55-5.95 1.9-1.3 4.017-1.95 6.35-1.95z" fill="#374151" fill-rule="nonzero" stroke="none" stroke-width="1" stroke-linecap="butt" stroke-linejoin="miter" stroke-miterlimit="10" stroke-dasharray="" stroke-dashoffset="0" font-family="none" font-weight="none" font-size="none" text-anchor="none" style="mix-blend-mode: normal" data-fill-palette-color="primary" opacity="1"></path></g></svg></g></svg></g></svg></g></svg></g><g><svg viewBox="0 0 175.82223958070773 237.15840000000003" height="237.15840000000003" width="175.82223958070773"><g><svg xmlns="http://www.w3.org/2000/svg" xmlns:xlink="http://www.w3.org/1999/xlink" viewBox="14.784902572631836 2.5 70.43019104003906 94.99999237060547" version="1.1" xml:space="preserve" style="" x="0" y="0" fill-rule="evenodd" clip-rule="evenodd" stroke-linecap="round" stroke-linejoin="round" stroke-miterlimit="1.5" height="237.15840000000003" width="175.82223958070773" class="icon-icon-0" data-fill-palette-color="accent" id="icon-0"><g fill="#374151" data-fill-palette-color="accent"><path d="M74.759 80.453l-3.44 0 0 8.682-3.522 0 0-8.682-3.439 0 5.2-6.981 5.201 6.981Z" fill="#374151" data-fill-palette-color="accent"></path><circle cx="50.881" cy="12.349" r="9.8" fill="#374151" stroke-opacity="0" data-fill-palette-color="accent"></circle><path d="M79.672 41.26c0.014 12.009 0.049 46.249-0.005 54.308-0.002 0.191-0.205 0.403-0.395 0.416-4.922 0.322-29.134 1.516-29.134 1.516l-0.043 0c0 0-24.398-1.195-29.356-1.516-0.191-0.013-0.393-0.225-0.394-0.416-0.054-8.062-0.019-42.332-0.005-54.325l-4.754 24.402c-0.006 0.021-0.01 0.043-0.018 0.064-0.015 0.042-0.038 0.081-0.066 0.115-0.029 0.035-0.063 0.064-0.101 0.088-0.176 0.108-0.414 0.062-0.537-0.105-0.053-0.072-0.081-0.161-0.079-0.251 0.001-0.022 0.005-0.044 0.007-0.066l5.547-28.473c0.01-0.035 0.014-0.054 0.022-0.076 0.033-0.131 0.125-0.231 0.344-0.273l7.472-0.007c0.25-1.49 1.241-2.937 2.535-3.658 1.348-0.752 3.256-0.822 4.697-0.172 0.111-0.504 0.239-1.013 0.395-1.524 0.929-3.044 8.17-6.711 15.188-6.716 6.869-0.004 13.525 3.584 14.594 6.516 0.262 0.719 0.51 1.402 0.726 2.074 1.462-1.07 3.83-1.131 5.419-0.245 1.3 0.725 2.295 2.183 2.539 3.681 1.757 0.011 3.415 0.025 4.888 0.045 0.054-0.015 0.071-0.012 0.128-0.014 0.023 0.003 0.045 0.006 0.067 0.009 0.056 0.018 0.072 0.019 0.123 0.05 0.076 0.047 0.135 0.119 0.167 0.203 0.008 0.021 0.012 0.043 0.018 0.065l5.547 28.473c0.002 0.022 0.006 0.044 0.007 0.066 0.002 0.09-0.026 0.179-0.079 0.251-0.123 0.167-0.361 0.213-0.537 0.105-0.038-0.024-0.072-0.053-0.101-0.088-0.028-0.034-0.051-0.073-0.066-0.115-0.008-0.021-0.012-0.043-0.018-0.064l-4.742-24.343Zm-35.997 54.724l-7.266 0 7.266 0.386 0-0.386Zm19.138 0l-6.476 0 0 0.328 6.476-0.328Zm-19.138-58.49l-22.499 0 0 57.659 22.499 0 0-13.341 12.662 0 0 13.341 22.498 0 0-57.659-22.593 0 0.095 13.286-12.662 0 0-13.286Z" fill="#374151" data-fill-palette-color="accent"></path></g></svg></g></svg></g></svg></g></svg></g><g><path xmlns="http://www.w3.org/2000/svg" d="M0 247.2v-247.2h395.52v247.2zM391.618 243.298v-239.396h-387.716v239.396z" fill="#374151" fill-rule="nonzero" stroke="none" stroke-width="1" stroke-linecap="butt" stroke-linejoin="miter" stroke-miterlimit="10" stroke-dasharray="" stroke-dashoffset="0" font-family="none" font-weight="none" font-size="none" text-anchor="none" style="mix-blend-mode: normal" data-fill-palette-color="tertiary"></path></g></svg></g><defs></defs></svg><rect width="395.52" height="247.2" fill="none" stroke="none" visibility="hidden"></rect></g></svg></g></svg>