<?xml version="1.0" encoding="UTF-8" standalone="no"?>
<svg
   width="64pt"
   height="64pt"
   viewBox="0 0 22.577778 22.577778"
   version="1.1"
   id="svg831"
   inkscape:version="1.1.2 (1:1.1+202202050950+0a00cf5339)"
   sodipodi:docname="1 - Delivery Box.svg"
   inkscape:export-filename="/media/taufikramadhan/Data/Tr Design Studio/Project Design/TR Creative Design/Icon Design/Project Hiring/Icon Icons/019 - Commerce And Shopping/5 - Send/1 - Delivery Box.png"
   inkscape:export-xdpi="576"
   inkscape:export-ydpi="576"
   xmlns:inkscape="http://www.inkscape.org/namespaces/inkscape"
   xmlns:sodipodi="http://sodipodi.sourceforge.net/DTD/sodipodi-0.dtd"
   xmlns="http://www.w3.org/2000/svg"
   xmlns:svg="http://www.w3.org/2000/svg"
   xmlns:rdf="http://www.w3.org/1999/02/22-rdf-syntax-ns#"
   xmlns:cc="http://creativecommons.org/ns#"
   xmlns:dc="http://purl.org/dc/elements/1.1/">
  <defs
     id="defs825">
    <pattern
       id="EMFhbasepattern"
       patternUnits="userSpaceOnUse"
       width="6"
       height="6"
       x="0"
       y="0" />
    <pattern
       id="EMFhbasepattern-9"
       patternUnits="userSpaceOnUse"
       width="6"
       height="6"
       x="0"
       y="0" />
    <pattern
       id="EMFhbasepattern-0"
       patternUnits="userSpaceOnUse"
       width="6"
       height="6"
       x="0"
       y="0" />
    <pattern
       id="EMFhbasepattern-7"
       patternUnits="userSpaceOnUse"
       width="6"
       height="6"
       x="0"
       y="0" />
    <pattern
       id="EMFhbasepattern-2"
       patternUnits="userSpaceOnUse"
       width="6"
       height="6"
       x="0"
       y="0" />
    <pattern
       id="EMFhbasepattern-98"
       patternUnits="userSpaceOnUse"
       width="6"
       height="6"
       x="0"
       y="0" />
    <pattern
       id="EMFhbasepattern-6"
       patternUnits="userSpaceOnUse"
       width="6"
       height="6"
       x="0"
       y="0" />
    <pattern
       id="EMFhbasepattern-01"
       patternUnits="userSpaceOnUse"
       width="6"
       height="6"
       x="0"
       y="0" />
    <pattern
       id="EMFhbasepattern-07"
       patternUnits="userSpaceOnUse"
       width="6"
       height="6"
       x="0"
       y="0" />
    <pattern
       id="EMFhbasepattern-8"
       patternUnits="userSpaceOnUse"
       width="6"
       height="6"
       x="0"
       y="0" />
    <pattern
       id="EMFhbasepattern-4"
       patternUnits="userSpaceOnUse"
       width="6"
       height="6"
       x="0"
       y="0" />
    <pattern
       id="EMFhbasepattern-40"
       patternUnits="userSpaceOnUse"
       width="6"
       height="6"
       x="0"
       y="0" />
    <pattern
       id="EMFhbasepattern-08"
       patternUnits="userSpaceOnUse"
       width="6"
       height="6"
       x="0"
       y="0" />
    <pattern
       id="EMFhbasepattern-04"
       patternUnits="userSpaceOnUse"
       width="6"
       height="6"
       x="0"
       y="0" />
    <pattern
       id="EMFhbasepattern-014"
       patternUnits="userSpaceOnUse"
       width="6"
       height="6"
       x="0"
       y="0" />
    <pattern
       id="EMFhbasepattern-27"
       patternUnits="userSpaceOnUse"
       width="6"
       height="6"
       x="0"
       y="0" />
    <pattern
       id="EMFhbasepattern-09"
       patternUnits="userSpaceOnUse"
       width="6"
       height="6"
       x="0"
       y="0" />
    <pattern
       id="EMFhbasepattern-5"
       patternUnits="userSpaceOnUse"
       width="6"
       height="6"
       x="0"
       y="0" />
    <pattern
       id="EMFhbasepattern-018"
       patternUnits="userSpaceOnUse"
       width="6"
       height="6"
       x="0"
       y="0" />
  </defs>
  <sodipodi:namedview
     id="base"
     pagecolor="#ffffff"
     bordercolor="#666666"
     borderopacity="1.0"
     inkscape:pageopacity="0.0"
     inkscape:pageshadow="2"
     inkscape:zoom="4.4249417"
     inkscape:cx="40.791498"
     inkscape:cy="44.746353"
     inkscape:document-units="pt"
     inkscape:current-layer="layer1"
     showgrid="false"
     units="pt"
     inkscape:window-width="1366"
     inkscape:window-height="705"
     inkscape:window-x="0"
     inkscape:window-y="31"
     inkscape:window-maximized="1"
     inkscape:pagecheckerboard="true"
     inkscape:showpageshadow="false"
     inkscape:object-paths="true"
     inkscape:snap-intersection-paths="true"
     inkscape:snap-smooth-nodes="true"
     inkscape:snap-midpoints="true"
     showguides="true"
     inkscape:snap-bbox="true"
     inkscape:bbox-nodes="true"
     inkscape:snap-nodes="false"
     inkscape:snap-global="true"
     inkscape:document-rotation="0">
    <inkscape:grid
       type="xygrid"
       id="grid1378" />
    <sodipodi:guide
       position="0.97013831,21.607643"
       orientation="78.000048,0"
       id="guide1380"
       inkscape:locked="false" />
    <sodipodi:guide
       position="0.97013831,0.97013129"
       orientation="0,78.000005"
       id="guide1382"
       inkscape:locked="false" />
    <sodipodi:guide
       position="21.607639,0.97013129"
       orientation="-78.000048,0"
       id="guide1384"
       inkscape:locked="false" />
    <sodipodi:guide
       position="21.607639,21.607643"
       orientation="0,-78.000005"
       id="guide1386"
       inkscape:locked="false" />
  </sodipodi:namedview>
  <metadata
     id="metadata828">
    <rdf:RDF>
      <cc:Work
         rdf:about="">
        <dc:format>image/svg+xml</dc:format>
        <dc:type
           rdf:resource="http://purl.org/dc/dcmitype/StillImage" />
      </cc:Work>
    </rdf:RDF>
  </metadata>
  <g
     inkscape:label="Icon"
     inkscape:groupmode="layer"
     id="layer1"
     transform="translate(0,-274.42223)">
    <path
       id="path2993"
       style="color:#000000;clip-rule:evenodd;display:inline;fill:#000000;fill-rule:evenodd;stroke-width:1;stroke-linecap:round;stroke-linejoin:round;stroke-miterlimit:1.5;-inkscape-stroke:none"
       d="m 20.895296,286.20734 -1.321048,-2.64145 c -0.05611,-0.11284 -0.171112,-0.18428 -0.297107,-0.18463 h -0.331562 v -4.25448 c 3.34e-4,-0.10404 -0.05504,-0.22274 -0.121579,-0.33798 l -1.92306,-3.22591 c -0.05981,-0.1004 -0.167886,-0.16209 -0.284754,-0.16253 l -10.9861821,-0.008 c -0.1167344,2.9e-4 -0.2247854,0.0618 -0.2847541,0.16187 l -1.9978246,3.31953 c -0.03588,0.0637 -0.046867,0.12291 -0.046867,0.19896 v 9.30065 c -0.1118921,2.3e-4 -0.2161876,0.0566 -0.2776007,0.15018 l -1.3314504,1.99522 c -0.030357,0.053 -0.05662,0.12166 -0.05662,0.18399 v 4.99294 c -6.657e-4,0.18485 0.1493189,0.33488 0.3341608,0.33417 6.21346,10e-6 12.4260911,0 18.6396771,0 0.184846,7.1e-4 0.33487,-0.14932 0.334165,-0.33417 v -9.32014 c 0,-0.0746 -0.02813,-0.13527 -0.04759,-0.16904 z M 5.8191947,276.0589 l 4.1068229,0.004 -0.092971,0.99469 H 5.2184808 Z m 6.5038233,0.005 4.101624,0.004 0.591609,0.99013 h -4.593763 z m -1.729324,0.003 h 1.059049 l 0.26785,2.64665 h -1.575245 z m -5.7763359,1.65652 h 4.9532786 l -0.092317,0.99013 H 4.2211932 Z m 7.6720909,0 h 4.924676 l 0.591613,0.99013 h -5.417469 z m -8.5224516,1.65845 h 5.6586638 v 1.67083 c 4.66e-5,0.2547 0.2741534,0.41499 0.4960428,0.28994 l 1.000539,-0.57276 0.99989,0.57276 c 0.222444,0.12787 0.499672,-0.0333 0.498641,-0.28994 v -1.67083 h 5.658665 v 4.00021 c -2.332216,7.4e-4 -4.657248,0 -6.990093,0 -0.126231,1.1e-4 -0.241535,0.0716 -0.297756,0.18463 l -1.3314503,2.66356 c -0.030986,0.063 -0.041214,0.13427 -0.029262,0.20349 v 1.94125 H 3.9670174 Z m 6.3243896,0 h 1.663661 v 1.09612 l -0.668325,-0.38098 c -0.102066,-0.0581 -0.227541,-0.0581 -0.32961,0 l -0.665726,0.38098 z m -5.3271033,0.67353 c -0.1828215,6.7e-4 -0.3308488,0.14874 -0.3315611,0.33157 6.657e-4,0.18282 0.1487396,0.33084 0.3315611,0.33156 h 2.3293892 c 0.1838334,7.3e-4 0.3334452,-0.14772 0.3341608,-0.33156 -6.657e-4,-0.18383 -0.1503274,-0.33228 -0.3341608,-0.33157 z m 9.6543183,0 c -0.183827,-6.6e-4 -0.333429,0.14774 -0.334164,0.33157 v 1.33144 c 3.32e-4,0.18409 0.150081,0.33292 0.334164,0.33222 0.886982,0 1.773968,0 2.66095,0 0.18389,7e-4 0.333512,-0.14833 0.334161,-0.33222 v -1.33144 c -6.66e-4,-0.18389 -0.150271,-0.33227 -0.334161,-0.33157 -0.886982,0 -1.773968,0 -2.66095,0 z m 0.331561,0.66313 h 0.665725 v 0.66573 h -0.665725 z m 1.3321,0 h 0.665724 v 0.66573 h -0.665724 z m -11.3179793,0.66573 c -0.1838368,7.3e-4 -0.3322801,0.15032 -0.3315611,0.33415 3.328e-4,0.18308 0.1484866,0.3315 0.3315611,0.33222 h 1.6636639 c 0.1840864,7.3e-4 0.3338014,-0.14813 0.3341609,-0.33222 6.657e-4,-0.18484 -0.1493089,-0.33488 -0.3341609,-0.33415 z m 6.5311313,2.66354 h 2.744815 l -0.248997,1.99783 h -3.495707 l 0.332862,-0.66572 H 13.2865 c 0.182941,-6.3e-4 0.331584,-0.14863 0.332213,-0.33157 6.65e-4,-0.18389 -0.148314,-0.33353 -0.332213,-0.33416 h -2.124601 z m 3.41574,0 h 0.744391 l 0.250299,1.99783 H 14.66281 Z m 1.414666,0 h 2.744819 l 0.333511,0.66638 h -2.124599 c -0.183897,6.4e-4 -0.332287,0.15027 -0.331565,0.33416 6.67e-4,0.18294 0.148624,0.33094 0.331565,0.33157 h 2.45811 l 0.333516,0.66572 h -3.496359 z m -6.029234,2.66355 h 3.65629 v 1.92177 c 0.002,0.25615 0.280254,0.4143 0.501244,0.28475 l 0.830206,-0.48888 0.828256,0.48888 c 0.22099,0.12955 0.499373,-0.0286 0.501244,-0.28475 v -1.92177 h 3.663439 v 8.65443 h -3.663439 v -0.99793 c 6.65e-4,-0.18383 -0.147735,-0.33344 -0.331564,-0.33417 h -1.990671 c -0.184846,-6.9e-4 -0.334871,0.14932 -0.334165,0.33417 v 0.99793 h -3.66084 z m 4.322015,0 h 1.33145 v 1.33926 l -0.498644,-0.29451 c -0.103979,-0.061 -0.232789,-0.061 -0.336764,0 l -0.496042,0.29191 z m -3.329278,0.66639 c -0.183069,3.6e-4 -0.331479,0.14848 -0.332211,0.33156 v 1.33144 c -6.65e-4,0.18408 0.148131,0.33379 0.332211,0.33417 h 1.33145 c 0.183829,-7.3e-4 0.332267,-0.15034 0.331563,-0.33417 v -1.33144 c -6.65e-4,-0.18282 -0.148749,-0.33084 -0.331563,-0.33156 z m 0.331563,0.66571 h 0.665726 v 0.66573 h -0.665726 z m -8.1427816,0.99729 h 2.0238313 l -0.4440355,1.3321 H 2.5906869 Z m 2.7246602,0 h 0.6312707 l -0.4446845,1.3321 H 5.7587335 Z m 1.332752,0 h 2.0901436 v 1.3321 H 7.0914855 Z m -5.2347839,1.99783 h 2.66355 v 1.3321 c 3.329e-4,0.24716 0.260658,0.40762 0.4817421,0.29711 l 0.5181472,-0.25811 0.5161968,0.25811 c 0.2210806,0.11046 0.4812461,-0.05 0.4817387,-0.29711 v -1.3321 h 2.6635527 v 4.32721 H 2.3007337 Z m 3.3292753,0 h 0.6663743 v 0.7938 l -0.1846323,-0.0936 c -0.093544,-0.0467 -0.2035622,-0.0467 -0.2971065,0 l -0.1846355,0.0936 z m 5.659315,1.99782 c -0.183075,3.8e-4 -0.331495,0.14849 -0.332211,0.33156 v 0.9999 c 3.32e-4,0.18333 0.148883,0.33185 0.332211,0.3322 0.183073,-6.9e-4 0.331207,-0.14913 0.331563,-0.3322 v -0.9999 c -6.65e-4,-0.18282 -0.148743,-0.33084 -0.331563,-0.33156 z m -7.9887043,0.33156 c -0.1848519,-7.3e-4 -0.334883,0.14932 -0.3341608,0.33417 v 0.66573 c 3.329e-4,0.18408 0.1500744,0.33293 0.3341608,0.3322 0.1833274,-3.6e-4 0.3318573,-0.14887 0.3322135,-0.3322 v -0.66573 c 6.658e-4,-0.18409 -0.1481239,-0.3338 -0.3322135,-0.33417 z m 1.3321029,0.33417 c -0.1838368,-7.3e-4 -0.3334486,0.14772 -0.3341641,0.33156 v 0.33417 c 3.328e-4,0.18409 0.1500743,0.33293 0.3341641,0.3322 0.1830744,-7.3e-4 0.331205,-0.14913 0.3315611,-0.3322 v -0.33417 C 4.963618,293.85086 4.815544,293.70284 4.6327226,293.70212 Z m 7.9880514,0 c -0.183834,-7.3e-4 -0.333445,0.14773 -0.334161,0.33156 v 0.33417 c 3.32e-4,0.18408 0.150075,0.33293 0.334161,0.3322 0.183074,-6.9e-4 0.331207,-0.14913 0.331563,-0.3322 v -0.33417 c -6.65e-4,-0.18282 -0.148742,-0.33084 -0.331563,-0.33156 z m 2.003027,0.99793 h 1.326251 v 0.66573 h -1.326251 z"
       sodipodi:nodetypes="ccccccccccccccccccccccccccccccccccccccccccccccccccccccccccccccccccccccccccccccccccccccccccccccccccccccccccccccccccccccccccccccccccccccccccccccccccccccccccccccccccccccccccccccccccccccccccccccccccccccccccccccccccccccccsccsccssccsccsccccc" />
  </g>
</svg>
