<?xml version="1.0" encoding="utf-8"?>
<!-- Generator: Adobe Illustrator 18.0.0, SVG Export Plug-In . SVG Version: 6.00 Build 0)  -->
<!DOCTYPE svg PUBLIC "-//W3C//DTD SVG 1.1//EN" "http://www.w3.org/Graphics/SVG/1.1/DTD/svg11.dtd">
<svg version="1.1" id="Layer_1" xmlns="http://www.w3.org/2000/svg" xmlns:xlink="http://www.w3.org/1999/xlink" x="0px" y="0px"
	 viewBox="0 0 512 512" enable-background="new 0 0 512 512" xml:space="preserve">
<g>
	<g>
		<g>
			<g>
				<path d="M481.5,219.2c-31.6,0-63.2,0-94.8,0c-63.8,0-127.7,0-191.5,0c-49.5,0-99.1,0-148.6,0c-5.4,0-10.8,0-16.2,0
					c2.5,2.5,5,5,7.5,7.5c0-13.5,0-26.9,0-40.4c-2.5,2.5-5,5-7.5,7.5c31.6,0,63.2,0,94.8,0c63.8,0,127.7,0,191.5,0
					c49.5,0,99.1,0,148.6,0c5.4,0,10.8,0,16.2,0c-2.5-2.5-5-5-7.5-7.5c0,13.5,0,26.9,0,40.4c0,9.7,15,9.7,15,0c0-13.5,0-26.9,0-40.4
					c0-4.1-3.4-7.5-7.5-7.5c-31.6,0-63.2,0-94.8,0c-63.8,0-127.7,0-191.5,0c-49.5,0-99.1,0-148.6,0c-5.4,0-10.8,0-16.2,0
					c-4.1,0-7.5,3.4-7.5,7.5c0,13.5,0,26.9,0,40.4c0,4.1,3.4,7.5,7.5,7.5c31.6,0,63.2,0,94.8,0c63.8,0,127.7,0,191.5,0
					c49.5,0,99.1,0,148.6,0c5.4,0,10.8,0,16.2,0C491.2,234.2,491.2,219.2,481.5,219.2z"/>
			</g>
		</g>
		<g>
			<g>
				<path d="M436.5,193.9c15,0,30,0,45,0c-2.5-2.5-5-5-7.5-7.5c0,39.2,0,78.4,0,117.7c0,55.6,0,111.2,0,166.9c0,2.4,0,4.8,0,7.1
					c2.5-2.5,5-5,7.5-7.5c-15,0-30,0-45,0c2.5,2.5,5,5,7.5,7.5c0-45.7,0-91.4,0-137.1c0-38.1,0-76.1,0-114.2c0-9.7-15-9.7-15,0
					c0,45.7,0,91.4,0,137.1c0,38.1,0,76.1,0,114.2c0,4.1,3.4,7.5,7.5,7.5c15,0,30,0,45,0c4.1,0,7.5-3.4,7.5-7.5
					c0-45.7,0-91.4,0-137.1c0-42.3,0-84.7,0-127c0-9.2,0-18.3,0-27.5c0-4.1-3.4-7.5-7.5-7.5c-15,0-30,0-45,0
					C426.9,178.9,426.9,193.9,436.5,193.9L436.5,193.9z"/>
			</g>
		</g>
	</g>
	<g>
		<g>
			<path d="M193.9,282c-49.5,0-99,0-148.5,0c-5,0-10,0-15,0c2.5,2.5,5,5,7.5,7.5c0-20.9,0-41.8,0-62.7c-2.5,2.5-5,5-7.5,7.5
				c49.5,0,99,0,148.5,0c5,0,10,0,15,0c-2.5-2.5-5-5-7.5-7.5c0,20.9,0,41.8,0,62.7c0,9.7,15,9.7,15,0c0-20.9,0-41.8,0-62.7
				c0-4.1-3.4-7.5-7.5-7.5c-49.5,0-99,0-148.5,0c-5,0-10,0-15,0c-4.1,0-7.5,3.4-7.5,7.5c0,20.9,0,41.8,0,62.7c0,4.1,3.4,7.5,7.5,7.5
				c49.5,0,99,0,148.5,0c5,0,10,0,15,0C203.6,297,203.6,282,193.9,282z"/>
		</g>
	</g>
	<g>
		<g>
			<path d="M193.9,345c-49.5,0-99,0-148.5,0c-5,0-10,0-15,0c2.5,2.5,5,5,7.5,7.5c0-20.9,0-41.8,0-62.7c-2.5,2.5-5,5-7.5,7.5
				c49.5,0,99,0,148.5,0c5,0,10,0,15,0c-2.5-2.5-5-5-7.5-7.5c0,20.9,0,41.8,0,62.7c0,9.7,15,9.7,15,0c0-20.9,0-41.8,0-62.7
				c0-4.1-3.4-7.5-7.5-7.5c-49.5,0-99,0-148.5,0c-5,0-10,0-15,0c-4.1,0-7.5,3.4-7.5,7.5c0,20.9,0,41.8,0,62.7c0,4.1,3.4,7.5,7.5,7.5
				c49.5,0,99,0,148.5,0c5,0,10,0,15,0C203.6,360,203.6,345,193.9,345z"/>
		</g>
	</g>
	<g>
		<g>
			<path d="M193.9,407.8c-49.5,0-99,0-148.5,0c-5,0-10,0-15,0c2.5,2.5,5,5,7.5,7.5c0-20.9,0-41.8,0-62.7c-2.5,2.5-5,5-7.5,7.5
				c49.5,0,99,0,148.5,0c5,0,10,0,15,0c-2.5-2.5-5-5-7.5-7.5c0,20.9,0,41.8,0,62.7c0,9.7,15,9.7,15,0c0-20.9,0-41.8,0-62.7
				c0-4.1-3.4-7.5-7.5-7.5c-49.5,0-99,0-148.5,0c-5,0-10,0-15,0c-4.1,0-7.5,3.4-7.5,7.5c0,20.9,0,41.8,0,62.7c0,4.1,3.4,7.5,7.5,7.5
				c49.5,0,99,0,148.5,0c5,0,10,0,15,0C203.6,422.8,203.6,407.8,193.9,407.8z"/>
		</g>
	</g>
	<g>
		<g>
			<path d="M193.9,470.5c-49.5,0-99,0-148.5,0c-5,0-10,0-15,0c2.5,2.5,5,5,7.5,7.5c0-20.9,0-41.8,0-62.7c-2.5,2.5-5,5-7.5,7.5
				c49.5,0,99,0,148.5,0c5,0,10,0,15,0c-2.5-2.5-5-5-7.5-7.5c0,20.9,0,41.8,0,62.7c0,9.7,15,9.7,15,0c0-20.9,0-41.8,0-62.7
				c0-4.1-3.4-7.5-7.5-7.5c-49.5,0-99,0-148.5,0c-5,0-10,0-15,0c-4.1,0-7.5,3.4-7.5,7.5c0,20.9,0,41.8,0,62.7c0,4.1,3.4,7.5,7.5,7.5
				c49.5,0,99,0,148.5,0c5,0,10,0,15,0C203.6,485.5,203.6,470.5,193.9,470.5z"/>
		</g>
	</g>
	<g>
		<g>
			<path d="M95,265.6c11.4,0,22.9,0,34.3,0c9.7,0,9.7-15,0-15c-11.4,0-22.9,0-34.3,0C85.4,250.6,85.4,265.6,95,265.6L95,265.6z"/>
		</g>
	</g>
	<g>
		<g>
			<path d="M95,328.7c11.4,0,22.9,0,34.3,0c9.7,0,9.7-15,0-15c-11.4,0-22.9,0-34.3,0C85.4,313.7,85.4,328.7,95,328.7L95,328.7z"/>
		</g>
	</g>
	<g>
		<g>
			<path d="M95,391.4c11.4,0,22.9,0,34.3,0c9.7,0,9.7-15,0-15c-11.4,0-22.9,0-34.3,0C85.4,376.4,85.4,391.4,95,391.4L95,391.4z"/>
		</g>
	</g>
	<g>
		<g>
			<path d="M95,454.2c11.4,0,22.9,0,34.3,0c9.7,0,9.7-15,0-15c-11.4,0-22.9,0-34.3,0C85.4,439.2,85.4,454.2,95,454.2L95,454.2z"/>
		</g>
	</g>
	<g>
		<g>
			<g>
				<path d="M70.3,186.4c0-22.6,0-45.2,0-67.8c0-14.7,0-29.5,0-44.2c0-7.8-1.5-17.7,2.6-24.7c8.9-15.4,31.9-7,31.9,9.6
					c0,9.7,15,9.7,15,0c0-25.1-27.2-40.5-48.9-28.1c-9.6,5.5-15.6,16.7-15.6,27.6c0,2.3,0,4.5,0,6.8c0,28.9,0,57.9,0,86.8
					c0,11.3,0,22.7,0,34C55.3,196,70.3,196,70.3,186.4L70.3,186.4z"/>
			</g>
		</g>
	</g>
	<g>
		<g>
			<path d="M135.7,96.1c-15.6,0-31.3,0-46.9,0c2.5,2.5,5,5,7.5,7.5c0-6.5,0-13,0-19.6c0-9.4,6.2-17.1,16-17.3
				c19.6-0.6,16,24.3,16,36.9c0,9.7,15,9.7,15,0c0-7.4,0.2-14.9,0-22.3c-0.5-16.7-14.8-29.1-30.9-29.6
				c-15.8-0.5-29.5,12.8-30.8,28.2c-0.7,7.8-0.2,15.8-0.2,23.7c0,4.1,3.4,7.5,7.5,7.5c15.6,0,31.3,0,46.9,0
				C145.3,111.1,145.3,96.1,135.7,96.1z"/>
		</g>
	</g>
</g>
</svg>
